<?xml version="1.0" encoding="UTF-8"?>
<svg version="1.1" xmlns="http://www.w3.org/2000/svg" width="1024" height="1024">
<path d="M0 0 C337.92 0 675.84 0 1024 0 C1024 337.92 1024 675.84 1024 1024 C686.08 1024 348.16 1024 0 1024 C0 686.08 0 348.16 0 0 Z " fill="#C8EBD2" transform="translate(0,0)"/>
<path d="M0 0 C13.21267287 11.4980512 22.07608757 24.62717253 29.58227539 40.29541016 C34.69380815 50.8944224 40.62374013 55.74672444 51.55859375 60.0390625 C69.46866987 66.03385976 89.29530091 67.4105749 108.05859375 68.3515625 C115.69955525 68.83185151 120.71592187 69.78178256 126.12109375 75.4140625 C133.25993583 84.43154723 134.58386149 93.50929654 133.37109375 104.8515625 C132.47610809 108.37951428 131.42170192 111.73629821 130.1484375 115.14453125 C129.33831579 117.96570886 129.1792588 119.19648464 130.37109375 121.8515625 C132.3209191 123.25725054 134.33059953 124.5810661 136.37109375 125.8515625 C140.66212025 129.17929734 144.11341841 132.53993337 147.37109375 136.8515625 C147.37109375 137.5115625 147.37109375 138.1715625 147.37109375 138.8515625 C148.40327026 138.71524414 148.40327026 138.71524414 149.45629883 138.57617188 C170.45946949 135.85007601 189.38887812 134.77712159 210.26904297 138.57617188 C212.7805015 138.90519919 214.84134969 139.17009543 217.37109375 138.8515625 C219.60904452 137.01269402 219.60904452 137.01269402 221.5859375 134.46875 C249.80665183 101.3317178 249.80665183 101.3317178 266.37109375 94.8515625 C270.88100501 94.8515625 272.78512807 95.33070412 276.18359375 98.3515625 C281.54027833 105.78089036 280.9422184 116.58337242 281.43359375 125.3515625 C281.52110771 126.77824207 281.60867416 128.20491842 281.69628906 129.6315918 C282.18513432 137.99434969 282.43749501 146.33823221 282.5078125 154.71484375 C282.52918901 156.55338572 282.55059191 158.39192739 282.57202148 160.23046875 C282.61164333 163.78477439 282.61161469 167.33622724 282.59008789 170.890625 C282.62945545 181.12427281 284.05682461 187.8878531 289.37109375 196.8515625 C290.34903053 199.28181676 291.00551733 201.62202271 291.68359375 204.1640625 C291.98910156 205.27394531 292.29460938 206.38382813 292.609375 207.52734375 C297.52598558 228.98393659 293.25207442 249.10602746 282.37109375 267.8515625 C276.77651211 276.67089112 268.86568608 287.8438796 259.26757812 292.28881836 C255.400009 294.22408862 252.49120706 296.0583581 250.37109375 299.8515625 C248.28067889 309.01503341 249.3446499 318.85436118 249.74609375 328.1640625 C249.89959998 333.28468345 250.02244096 338.40588948 250.14453125 343.52734375 C250.19608871 345.38789146 250.19608871 345.38789146 250.24868774 347.286026 C250.49013879 357.61366305 249.87681733 367.63727448 248.37109375 377.8515625 C248.20367676 378.98875732 248.03625977 380.12595215 247.86376953 381.29760742 C247.39131247 384.14733012 246.84902196 386.9642981 246.24609375 389.7890625 C246.03436523 390.78429932 245.82263672 391.77953613 245.60449219 392.80493164 C239.34106744 420.56969808 225.56090401 445.00899318 205.83837891 465.33300781 C204.45119137 466.76866612 203.08806194 468.22745777 201.7265625 469.6875 C166.34830997 506.71001914 112.10128717 523.66831967 62.93359375 531.1015625 C62.07196625 531.23257355 61.21033875 531.36358459 60.32260132 531.49856567 C57.79943085 531.87884761 55.27508691 532.24986424 52.75 532.6171875 C52.01393524 532.72737717 51.27787048 532.83756683 50.51950073 532.95109558 C39.0911687 534.57497456 27.60465953 535.00992253 16.07421875 535.0546875 C14.24376259 535.06520897 14.24376259 535.06520897 12.37632751 535.07594299 C8.45787823 535.09334671 4.53958027 535.09979578 0.62109375 535.1015625 C-0.04754574 535.10200436 -0.71618523 535.10244621 -1.40508652 535.10290146 C-22.62436781 535.11024972 -43.57444602 534.70257244 -64.62890625 531.8515625 C-65.27980225 531.76434937 -65.93069824 531.67713623 -66.60131836 531.58728027 C-105.55527804 526.32903878 -143.81768974 516.4743138 -178.62890625 497.8515625 C-179.78519531 497.23796875 -180.94148438 496.624375 -182.1328125 495.9921875 C-222.21515786 473.92181759 -254.97787504 439.54185388 -268.390625 395.2109375 C-272.9666742 379.24258682 -274.94740433 364.2840403 -274.8347168 347.69555664 C-274.81646242 344.92259461 -274.81420792 342.1499691 -274.81445312 339.37695312 C-274.78915786 325.90037588 -274.49490208 312.65941162 -271.75390625 299.4140625 C-271.5731958 298.51212158 -271.39248535 297.61018066 -271.20629883 296.6809082 C-270.84602446 294.88401383 -270.48292981 293.08768207 -270.11669922 291.29199219 C-269.69955647 289.20502577 -269.31869997 287.11086214 -268.9453125 285.015625 C-266.77941879 273.0426722 -263.18728365 261.47195434 -259.62890625 249.8515625 C-259.31614746 248.81612305 -259.31614746 248.81612305 -258.99707031 247.75976562 C-256.1626782 238.45325889 -252.59035282 229.4128908 -249.06640625 220.3515625 C-248.59493164 219.13307617 -248.12345703 217.91458984 -247.63769531 216.65917969 C-245.31734211 210.76277194 -242.9028629 205.27202053 -239.62890625 199.8515625 C-239.00481199 198.41020195 -238.41655378 196.9523501 -237.87890625 195.4765625 C-234.90123439 187.74422106 -231.19978216 180.32266695 -227.62890625 172.8515625 C-228.35335937 172.6040625 -229.0778125 172.3565625 -229.82421875 172.1015625 C-239.0220935 168.00223113 -246.97518706 158.38160722 -250.72265625 149.16015625 C-255.69129627 132.98907321 -250.46866053 117.08395328 -242.90063477 102.52734375 C-240.98549262 99.16480042 -239.01382029 95.84580305 -237.00390625 92.5390625 C-236.28580058 91.345154 -235.56786646 90.1511423 -234.85009766 88.95703125 C-229.4456189 80.01085125 -223.78107363 71.30172706 -217.62890625 62.8515625 C-217.06929199 62.07844727 -216.50967773 61.30533203 -215.93310547 60.50878906 C-209.37252601 51.46252422 -202.77837019 42.44493778 -195.62890625 33.8515625 C-194.9932373 33.08271729 -194.9932373 33.08271729 -194.34472656 32.29833984 C-172.12960748 5.4738556 -144.42688892 -12.39653883 -110.62890625 -21.1484375 C-109.73429688 -21.38304687 -108.8396875 -21.61765625 -107.91796875 -21.859375 C-71.58332347 -30.65618386 -29.12239478 -23.79987686 0 0 Z " fill="#248349" transform="translate(503.62890625,260.1484375)"/>
<path d="M0 0 C12.34925909 9.13478967 19.23964431 19.72059376 25.55859375 33.56640625 C26.56671804 35.76327177 27.58084176 37.95739623 28.6015625 40.1484375 C29.03879639 41.10596924 29.47603027 42.06350098 29.92651367 43.05004883 C37.4658617 57.16163906 56.63570243 63.596229 71.23828125 68.07104492 C75.80715543 69.34091715 80.26365286 70.00341246 84.984375 70.45703125 C102.52573359 72.22487895 102.52573359 72.22487895 106.13427734 75.21484375 C108.3023955 78.13985931 109.22772612 80.84037293 110.265625 84.34375 C112.18288425 90.25812217 116.69849321 93.17653788 121.68359375 96.56640625 C122.56660156 97.17097656 123.44960938 97.77554688 124.359375 98.3984375 C125.35517578 99.06939453 125.35517578 99.06939453 126.37109375 99.75390625 C123.936099 116.79886948 112.87931879 132.5347933 99.37109375 142.75390625 C73.74763584 159.57952262 45.58321336 161.07793703 15.80029297 161.13476562 C-6.85221981 161.2071032 -27.48127216 163.99223614 -44.48046875 180.3984375 C-56.9320965 194.04994937 -61.21981256 208.7135258 -61.06640625 227.00390625 C-61.05395874 228.92468994 -61.05395874 228.92468994 -61.04125977 230.88427734 C-60.87038212 240.46437129 -59.83268803 248.67494007 -56.62890625 257.75390625 C-56.13750015 259.25764245 -55.64664457 260.76155862 -55.15625 262.265625 C-51.44431656 273.25281288 -46.45224013 283.31320894 -40.86621094 293.45361328 C-38.68786246 297.50341583 -36.66002089 301.62877585 -34.62890625 305.75390625 C-35.71606934 305.77578003 -35.71606934 305.77578003 -36.82519531 305.7980957 C-40.17691123 305.87354397 -43.52773371 305.96987791 -46.87890625 306.06640625 C-48.0184375 306.08896484 -49.15796875 306.11152344 -50.33203125 306.13476562 C-65.42422625 306.60639672 -78.35617254 310.39517798 -89.62890625 320.75390625 C-92.49885768 319.7699229 -94.58377439 318.7905427 -96.953125 316.8671875 C-108.32445439 307.88632735 -122.36782884 304.35914154 -136.62890625 305.75390625 C-150.6370831 308.57787812 -162.03860605 315.60231034 -170.41796875 327.23828125 C-178.3427429 339.80861266 -180.51260769 354.03295404 -177.9453125 368.64453125 C-174.5616848 382.29136166 -169.01619479 392.34544199 -158.75390625 402.06640625 C-157.89410156 402.90751953 -157.03429687 403.74863281 -156.1484375 404.61523438 C-151.69483072 408.94381578 -147.12927937 413.10312523 -142.42919922 417.16088867 C-139.70441389 419.57195787 -137.16748523 422.14980443 -134.62890625 424.75390625 C-131.40727885 428.01976882 -128.19344046 431.22245124 -124.69140625 434.19140625 C-120.96929871 437.35403207 -117.56048937 440.78381531 -114.12890625 444.25390625 C-109.98772179 448.43714222 -105.83831995 452.53801398 -101.3203125 456.3203125 C-99.62890625 457.75390625 -99.62890625 457.75390625 -98.09375 459.28125 C-95.42561043 461.84977903 -93.50497043 462.78282461 -89.87890625 463.62890625 C-85.94573587 463.34284074 -84.06990313 461.69791551 -81.23144531 459.0546875 C-79.9113446 457.82588867 -79.9113446 457.82588867 -78.5645752 456.57226562 C-72.88284367 451.14416182 -67.30276479 445.61424227 -61.73828125 440.06640625 C-61.09298714 439.42393951 -60.44769302 438.78147278 -59.78284454 438.11953735 C-56.37566107 434.72722695 -52.97127071 431.33214404 -49.56933594 427.93457031 C-46.07731111 424.44804955 -42.57608332 420.97092491 -39.07265854 417.49586487 C-36.3565506 414.79845278 -33.64724393 412.09428568 -30.9397049 409.38827515 C-29.65212249 408.10369804 -28.36206508 406.82159632 -27.06938934 405.54214478 C-17.58124666 396.14427242 -10.07924669 387.56744684 -5.62890625 374.75390625 C-5.23703125 373.64015625 -4.84515625 372.52640625 -4.44140625 371.37890625 C-3.28342396 366.21252371 -2.9581335 361.03020613 -2.62890625 355.75390625 C-0.76685547 355.80611328 -0.76685547 355.80611328 1.1328125 355.859375 C2.77472601 355.88752209 4.41665421 355.91482126 6.05859375 355.94140625 C6.87521484 355.96654297 7.69183594 355.99167969 8.53320312 356.01757812 C9.32919922 356.02724609 10.12519531 356.03691406 10.9453125 356.046875 C11.67322998 356.06258545 12.40114746 356.0782959 13.15112305 356.09448242 C16.1672597 355.63176268 17.92974264 354.57587295 20.37109375 352.75390625 C22.02174827 350.44845609 22.02174827 350.44845609 23.2734375 347.74609375 C23.77166016 346.75867188 24.26988281 345.77125 24.78320312 344.75390625 C25.28658203 343.72265625 25.78996094 342.69140625 26.30859375 341.62890625 C27.31253144 339.60289522 28.32159909 337.57941763 29.3359375 335.55859375 C29.82690918 334.57600586 30.31788086 333.59341797 30.82373047 332.58105469 C32.3283789 329.83194947 34.01678397 327.40552821 35.875 324.88671875 C38.14823466 321.61710832 38.14823466 321.61710832 38.109375 317.640625 C35.89674133 313.96616144 33.35907165 310.80607876 30.55859375 307.56640625 C9.17970022 282.00813513 -13.98136373 247.32602963 -15.06640625 212.94140625 C-15.10636719 211.69746094 -15.14632812 210.45351563 -15.1875 209.171875 C-14.47347596 204.80284677 -13.13693994 203.38370493 -9.62890625 200.75390625 C-3.88585743 199.15265121 1.57541428 200.46117653 6.80859375 203.06640625 C13.44898568 207.08484085 18.90249053 212.30108543 24.37109375 217.75390625 C25.00660156 218.36621094 25.64210938 218.97851562 26.296875 219.609375 C32.96929055 226.5684337 37.57448833 235.46213996 42.37109375 243.75390625 C42.78713867 244.46788574 43.20318359 245.18186523 43.63183594 245.91748047 C50.98130538 258.66991625 55.56978675 271.97913774 60.03125 285.953125 C60.2991333 286.78142822 60.5670166 287.60973145 60.84301758 288.46313477 C61.34991666 290.03695543 61.84639649 291.61418216 62.33081055 293.19506836 C63.75448832 297.73016309 63.75448832 297.73016309 67.37109375 300.75390625 C71.69461363 301.31436253 73.66814148 301.23251205 77.30859375 298.75390625 C79.90002535 294.9845512 79.86941278 292.14770704 79.37109375 287.75390625 C78.57250303 284.33753585 77.47244614 281.06156862 76.30859375 277.75390625 C75.99132324 276.83254883 75.67405273 275.91119141 75.34716797 274.96191406 C68.97919002 256.79916923 60.30854563 239.84489047 50.20166016 223.48608398 C46.77848862 217.92439701 46.16407479 213.69031739 46.12109375 207.25390625 C46.09015625 206.09568359 46.09015625 206.09568359 46.05859375 204.9140625 C46.01890281 199.18864484 46.01890281 199.18864484 47.75854492 197.04125977 C50.52653689 194.83147602 53.19853757 195.16576476 56.62109375 195.28515625 C68.21006237 197.26054863 76.84357902 208.31060807 83.37109375 217.25390625 C93.35483905 231.49678998 99.27925137 245.87678442 103.37109375 262.75390625 C103.55671875 263.46281006 103.74234375 264.17171387 103.93359375 264.90209961 C105.60066241 271.63288932 106.03007257 278.41394496 106.49609375 285.31640625 C106.58246094 286.51587891 106.66882813 287.71535156 106.7578125 288.95117188 C106.96820999 291.88504793 107.17248864 294.81921236 107.37109375 297.75390625 C107.93159424 297.93566406 108.49209473 298.11742187 109.06958008 298.3046875 C136.98736177 307.46672378 152.92884999 324.33842721 170.49609375 347.31640625 C171.49950806 348.62762451 171.49950806 348.62762451 172.52319336 349.96533203 C174.48844995 352.54998478 176.43337941 355.14855545 178.37109375 357.75390625 C179.04027832 358.63997559 179.70946289 359.52604492 180.39892578 360.43896484 C181.03427246 361.30473145 181.66961914 362.17049805 182.32421875 363.0625 C182.8955957 363.83263428 183.46697266 364.60276855 184.05566406 365.39624023 C187.24302764 371.10900379 185.817724 377.67893607 184.30859375 383.75390625 C179.73669323 397.21323956 169.95641728 407.51212854 157.37109375 413.75390625 C150.51833838 416.7398563 143.5531815 419.35186929 136.49609375 421.81640625 C126.66318621 425.34279124 118.57290894 430.14023261 112.93359375 439.12890625 C112.54671387 439.73887451 112.15983398 440.34884277 111.76123047 440.97729492 C104.09793445 453.40189514 99.61806261 467.003245 97.18359375 481.31640625 C97.00634766 482.32509766 96.82910156 483.33378906 96.64648438 484.37304688 C96.21523444 486.83233704 95.79023556 489.29252882 95.37109375 491.75390625 C91.40606143 492.30683594 87.44080337 492.85811604 83.4753418 493.40795898 C82.13022882 493.59469534 80.78517512 493.78185926 79.44018555 493.96948242 C77.49153564 494.24123538 75.54264386 494.51125211 73.59375 494.78125 C72.42593994 494.94359131 71.25812988 495.10593262 70.05493164 495.27319336 C68.23143188 495.51114624 68.23143188 495.51114624 66.37109375 495.75390625 C65.07945312 495.93477783 63.7878125 496.11564941 62.45703125 496.30200195 C55.26185748 497.07988038 48.00210715 496.93960494 40.7734375 496.95703125 C39.97212465 496.95985863 39.17081181 496.962686 38.34521675 496.96559906 C34.08080857 496.98055393 29.81643372 496.98979929 25.55200195 496.99414062 C22.09746433 496.99847324 18.64318382 497.01216399 15.1887207 497.03515625 C-55.62680743 497.49673037 -133.88812255 487.53104379 -187.62890625 436.75390625 C-188.97899083 435.60326598 -190.33302214 434.45723665 -191.69140625 433.31640625 C-208.65919689 418.38475048 -220.12456888 398.54825442 -227.44140625 377.37890625 C-227.71952148 376.59040283 -227.99763672 375.80189941 -228.28417969 374.98950195 C-233.13016352 360.20216823 -234.15775501 345.07841006 -234.00390625 329.62890625 C-233.99642868 328.35432053 -233.99642868 328.35432053 -233.98880005 327.0539856 C-233.75165849 292.40577907 -225.81114806 259.53355642 -214.62890625 226.87890625 C-214.30865479 225.93926025 -213.98840332 224.99961426 -213.65844727 224.03149414 C-211.65796737 218.30176822 -209.37325491 212.78856243 -206.7956543 207.29394531 C-205.59670288 204.68379872 -204.50845366 202.04537631 -203.44140625 199.37890625 C-200.962883 193.37325376 -198.21906648 187.50150363 -195.44140625 181.62890625 C-195.00094971 180.69127441 -194.56049316 179.75364258 -194.10668945 178.78759766 C-193.68734131 177.90765137 -193.26799316 177.02770508 -192.8359375 176.12109375 C-192.27096558 174.93169189 -192.27096558 174.93169189 -191.69458008 173.71826172 C-190.62890625 171.75390625 -190.62890625 171.75390625 -188.62890625 169.75390625 C-184.54479664 170.11276107 -181.21275741 171.29807007 -177.44140625 172.81640625 C-170.35796857 175.04940681 -163.46248292 175.20110228 -156.06640625 175.25390625 C-154.93114502 175.27203369 -153.79588379 175.29016113 -152.6262207 175.30883789 C-136.56148292 175.19615588 -120.02586532 168.16954886 -108.62890625 156.75390625 C-90.38328432 134.51523287 -87.66736979 105.42287771 -85.88671875 77.7421875 C-85.79153458 76.26640228 -85.79153458 76.26640228 -85.69442749 74.76080322 C-85.37814345 69.79346963 -85.07920983 64.8258551 -84.80615234 59.85595703 C-83.50366291 37.19441585 -79.89386714 18.80268896 -62.62890625 2.75390625 C-59.4455035 0.08660061 -56.22106978 -2.16611519 -52.62890625 -4.24609375 C-51.9328125 -4.67792969 -51.23671875 -5.10976563 -50.51953125 -5.5546875 C-35.70948431 -13.14352361 -13.28894409 -8.70654958 0 0 Z " fill="#C8EBD2" transform="translate(485.62890625,275.24609375)"/>
<path d="M0 0 C3.98300668 1.39014743 6.63306371 3.5860206 9.4375 6.75 C11.90467907 11.88173246 11.75410892 15.7820326 9.9375 21.125 C7.38325004 24.91517735 5.1218674 27.88121553 1 30 C-3.78346028 30.90411247 -8.57150597 31.18861032 -13.03515625 29.00390625 C-16.69639273 26.11629714 -18.74031028 22.99900689 -19.3359375 18.4140625 C-19.41974948 12.42988703 -19.25612393 8.59213371 -15 4 C-10.24921869 -0.19836488 -6.11421947 -1.04389113 0 0 Z " fill="#238248" transform="translate(480,327)"/>
<path d="M0 0 C1.19689453 -0.01611328 2.39378906 -0.03222656 3.62695312 -0.04882812 C4.77228516 -0.04947266 5.91761719 -0.05011719 7.09765625 -0.05078125 C8.14574463 -0.05376221 9.19383301 -0.05674316 10.27368164 -0.05981445 C12.9375 0.3125 12.9375 0.3125 14.76342773 1.67114258 C15.9375 3.3125 15.9375 3.3125 16.5625 5.9375 C15.24753725 13.03829883 9.4994304 18.297466 3.90625 22.53515625 C0.7074277 23.79818331 -1.65849186 23.73207228 -5.0625 23.3125 C-7.35712394 21.59078993 -8.9945901 20.14712931 -10.875 18.0625 C-11.35130859 17.57136719 -11.82761719 17.08023438 -12.31835938 16.57421875 C-14.73439149 14.02566167 -16.85347131 11.6355613 -18.0625 8.3125 C-17.9375 5.1875 -17.9375 5.1875 -17.0625 2.3125 C-12.15051104 -1.07889067 -5.70280955 -0.01540467 0 0 Z " fill="#C9EBD2" transform="translate(687.0625,503.6875)"/>
<path d="M0 0 C3.60906817 1.35801338 6.36511255 3.28319159 8.9375 6.1875 C10.45845997 10.2135705 10.79922724 13.75737318 10 18 C8.27778727 21.34520333 5.88610006 23.44918105 2.6875 25.4375 C-1.74771481 26.36580077 -5.84584652 26.26882007 -9.77734375 23.953125 C-14.06513471 20.55643974 -15.65108476 18.01595471 -16.5625 12.75 C-15.76524083 7.43493887 -12.86560089 4.58573839 -9 1 C-5.88111322 -0.55944339 -3.4545855 -0.28316275 0 0 Z " fill="#238248" transform="translate(602,615)"/>
<path d="M0 0 C3.47635347 2.39797443 5.60139143 5.08335712 6.46875 9.25390625 C6.66642927 14.12175837 5.87849738 17.97010367 3 22 C-1.01612795 24.67741863 -4.20274224 25.69960009 -9 25 C-13.31455798 22.71582225 -16.13452098 20.56005984 -18 16 C-18.53635899 11.17276908 -18.52017901 9.02109214 -16.3125 4.6875 C-11.51511561 -0.88783861 -7.04270734 -2.39699162 0 0 Z " fill="#C8EAD2" transform="translate(650,466)"/>
<path d="M0 0 C3.75212276 2.01502889 5.63644095 3.45466142 8 7 C8.74426249 12.02809889 8.53541366 15.96609776 6.1875 20.5 C3.89458568 23.12047351 2.20610699 24.76542153 -1.26953125 25.44140625 C-8.00503336 25.76214445 -8.00503336 25.76214445 -10.953125 23.50390625 C-15.08971062 18.67454294 -16.43955557 15.48344465 -16 9 C-12.88746319 1.95583774 -7.75143543 -1.53208411 0 0 Z " fill="#CAECD4" transform="translate(731,466)"/>
<path d="M0 0 C2.1698385 2.06898965 3.92378854 4.19900602 5.65234375 6.64453125 C9.20042795 11.43482832 13.3068675 15.52850195 17.5625 19.6875 C18.30435547 20.42033203 19.04621094 21.15316406 19.81054688 21.90820312 C21.235131 23.31502751 22.66162002 24.71992651 24.09033203 26.12255859 C26.40788186 28.40099866 28.70648329 30.69740006 31 33 C28 33 28 33 25.99462891 31.33520508 C24.87193604 30.18894653 24.87193604 30.18894653 23.7265625 29.01953125 C22.4890625 27.7675293 22.4890625 27.7675293 21.2265625 26.49023438 C20.36804688 25.60658203 19.50953125 24.72292969 18.625 23.8125 C17.34882813 22.51602539 17.34882813 22.51602539 16.046875 21.19335938 C14.40620341 19.52585437 12.76924387 17.85468685 11.13647461 16.17944336 C9.45892374 14.46815361 7.7624007 12.7858332 6.04296875 11.1171875 C3.18152739 8.1517932 0 4.27826789 0 0 Z " fill="#D0EED8" transform="translate(311,659)"/>
<path d="M0 0 C0.33 0 0.66 0 1 0 C1.82747949 19.0210246 2.13621948 37.96280432 2 57 C1.67 57 1.34 57 1 57 C1 49.41 1 41.82 1 34 C0.34 34 -0.32 34 -1 34 C-0.67 22.78 -0.34 11.56 0 0 Z " fill="#62AC7D" transform="translate(752,561)"/>
<path d="M0 0 C7.59602699 7.42308768 13.95885548 15.7894307 20.13671875 24.40625 C22.70319963 27.97887748 25.34631663 31.49191101 28 35 C27.67 35.66 27.34 36.32 27 37 C19.17890477 27.34843567 11.56068959 17.57308452 4.17919922 7.58056641 C3.19413732 6.26021635 2.1804887 4.96125638 1.16015625 3.66796875 C0 2 0 2 0 0 Z " fill="#1C7E42" transform="translate(643,605)"/>
<path d="M0 0 C3.63824085 3.54663047 6.99912094 7.22199849 10.25 11.125 C10.69601562 11.64964844 11.14203125 12.17429687 11.6015625 12.71484375 C13.63075457 15.14372517 14.98891926 16.96675779 16 20 C12.49643817 18.83214606 11.85338253 17.8402805 9.6875 14.9375 C9.08164062 14.13054688 8.47578125 13.32359375 7.8515625 12.4921875 C7.24054687 11.66976562 6.62953125 10.84734375 6 10 C5.40960937 9.23945312 4.81921875 8.47890625 4.2109375 7.6953125 C3.66695313 6.99148438 3.12296875 6.28765625 2.5625 5.5625 C2.06878906 4.92441406 1.57507813 4.28632812 1.06640625 3.62890625 C0 2 0 2 0 0 Z " fill="#1C7D41" transform="translate(508,573)"/>
<path d="M0 0 C0.99 0.33 1.98 0.66 3 1 C-1.61534219 5.06478107 -6.25585812 9.08608295 -11 13 C-11 10 -11 10 -9.1015625 7.7734375 C-7.87566406 6.58621094 -7.87566406 6.58621094 -6.625 5.375 C-5.40683594 4.18003906 -5.40683594 4.18003906 -4.1640625 2.9609375 C-2 1 -2 1 0 0 Z " fill="#197C3F" transform="translate(329,588)"/>
<path d="M0 0 C3.82257326 1.56982707 6.20138272 3.99870533 9.0625 6.9375 C9.91972656 7.81277344 10.77695312 8.68804688 11.66015625 9.58984375 C12.81837891 10.78287109 12.81837891 10.78287109 14 12 C14.99784251 13.00215285 15.99671595 14.00329487 17 15 C14 15 14 15 12.37426758 13.73071289 C11.80345459 13.1505542 11.2326416 12.57039551 10.64453125 11.97265625 C10.02255859 11.34552734 9.40058594 10.71839844 8.75976562 10.07226562 C8.11716797 9.40904297 7.47457031 8.74582031 6.8125 8.0625 C5.83120117 7.0734668 5.83120117 7.0734668 4.83007812 6.06445312 C0 1.15378975 0 1.15378975 0 0 Z " fill="#1D7F43" transform="translate(340,689)"/>
<path d="M0 0 C0.61875 0.680625 1.2375 1.36125 1.875 2.0625 C5.76440687 5.9857278 10.43629583 8.92503816 15 12 C14.01 12.33 13.02 12.66 12 13 C7.20167437 10.37914863 3.02541435 6.53812152 0 2 C0 1.34 0 0.68 0 0 Z " fill="#D1EFD9" transform="translate(515,320)"/>
<path d="M0 0 C5.03163018 4.29785078 10.02718443 8.63425542 15 13 C10.93227515 13 9.90346505 11.45824496 6.9375 8.75 C6.05964844 7.96109375 5.18179687 7.1721875 4.27734375 6.359375 C2.25063265 4.25966059 1.08539886 2.67363788 0 0 Z " fill="#1A7D40" transform="translate(288,703)"/>
<path d="M0 0 C0.99 0.33 1.98 0.66 3 1 C1.576875 1.9590625 1.576875 1.9590625 0.125 2.9375 C-3.8705059 6.19798359 -4.3772572 10.07174236 -5 15 C-5.33 15 -5.66 15 -6 15 C-6.6271777 7.00348432 -6.6271777 7.00348432 -4.125 3 C-2 1 -2 1 0 0 Z " fill="#D7F2DE" transform="translate(639,466)"/>
<path d="M0 0 C3.47775179 1.51553404 5.9557984 3.5773456 8.75 6.125 C9.94882812 7.21167969 9.94882812 7.21167969 11.171875 8.3203125 C11.77515625 8.87460937 12.3784375 9.42890625 13 10 C12.34 10.66 11.68 11.32 11 12 C9.16364422 10.19047409 7.33083792 8.37759362 5.5 6.5625 C4.97535156 6.04623047 4.45070313 5.52996094 3.91015625 4.99804688 C2.58775448 3.68423213 1.29164432 2.34406495 0 1 C0 0.67 0 0.34 0 0 Z " fill="#D0EED9" transform="translate(348,699)"/>
<path d="M0 0 C0.33 0 0.66 0 1 0 C1.15855469 0.58007812 1.31710937 1.16015625 1.48046875 1.7578125 C3.12851687 7.27558687 5.03581766 10.82153753 9 15 C6 15 6 15 4.39453125 13.49609375 C0.74838349 8.75160024 -0.75003869 6.00030954 0 0 Z " fill="#1A7C3E" transform="translate(668,507)"/>
<path d="M0 0 C3.36720387 1.39332574 4.9859524 2.9789286 7 6 C4 6 4 6 1.8125 4.125 C0 2 0 2 0 0 Z " fill="#BFE5CA" transform="translate(291,704)"/>
</svg>
